# xmcd CD database file
#
# Track frame offsets:
#	150
#	12247
#	27038
#	44303
#	58224
#	70650
#	86149
#	98598
#	112659
#	131295
#	148324
#	160662
#
# Disc length: 2198 seconds
#
# Revision: 0
# Processed by: cddbd v1.5.2PL0 Copyright (c) Steve Scherf et al.
# Submitted via: CDex 1.70beta2
#
DISCID=9308940c
DTITLE=The Arbuckle Boys - Songs of the Cowboys
DYEAR=1997
DGENRE=Country
TTITLE0=Old Chisholm Trail
TTITLE1=Navajo Trail
TTITLE2=Sweet Betsy From Pike
TTITLE3=Mustang Grey
TTITLE4=Branding G's On Cattle (At that Round-up In The Sky)
TTITLE5=Wagon Wheels
TTITLE6=Ragtime Cowboy Joe
TTITLE7=Arbuckle Coffee
TTITLE8=Red River Valley
TTITLE9=I Ride An Old Paint - Goodbye Old Paint
TTITLE10=Last Round-up
TTITLE11=Arbuckle Coffee Jingle
EXTD=YEAR: 1997
EXTT0=
EXTT1=
EXTT2=
EXTT3=
EXTT4=
EXTT5=
EXTT6=
EXTT7=
EXTT8=
EXTT9=
EXTT10=
EXTT11=
PLAYORDER=
